<svg width="64" height="64" viewBox="0 0 128 128" xmlns="http://www.w3.org/2000/svg">
  <!-- International ISA — favicon / social avatar -->
  <rect width="128" height="128" rx="28" fill="#faf5ec"/>
  <rect x="36" y="12" width="52" height="30" rx="6" fill="#2D5016"/>
  <line x1="46" y1="21" x2="78" y2="21" stroke="#9fd06a" stroke-width="4" stroke-linecap="round"/>
  <line x1="46" y1="29" x2="70" y2="29" stroke="#9fd06a" stroke-width="4" stroke-linecap="round"/>
  <line x1="46" y1="37" x2="74" y2="37" stroke="#f5c05a" stroke-width="4" stroke-linecap="round"/>
  <path d="M40 66 C34 56 36 48 42 42" fill="none" stroke="#2D5016" stroke-width="5" stroke-linecap="round"/>
  <path d="M62 70 C70 58 76 50 80 42" fill="none" stroke="#2D5016" stroke-width="5" stroke-linecap="round"/>
  <circle cx="40" cy="78" r="14" fill="#faf5ec" stroke="#2D5016" stroke-width="6"/>
  <circle cx="37" cy="76" r="3.5" fill="#0e120c"/>
  <path d="M34 85 Q40 89 46 84" fill="none" stroke="#0e120c" stroke-width="2.5" stroke-linecap="round"/>
  <circle cx="64" cy="86" r="13" fill="#faf5ec" stroke="#2D5016" stroke-width="6"/>
  <ellipse cx="92" cy="94" rx="17" ry="13" fill="#faf5ec" stroke="#2D5016" stroke-width="6"/>
  <path d="M58 97 L50 114" stroke="#2D5016" stroke-width="5" stroke-linecap="round"/>
  <path d="M68 98 L66 116" stroke="#2D5016" stroke-width="5" stroke-linecap="round"/>
  <path d="M86 105 L80 118" stroke="#2D5016" stroke-width="5" stroke-linecap="round"/>
  <path d="M98 105 L102 118" stroke="#2D5016" stroke-width="5" stroke-linecap="round"/>
</svg>
